HIERARCHY
ROOT Hips
{
	OFFSET 0.00000 0.00000 0.00000
	CHANNELS 6 Xposition Yposition Zposition Zrotation Yrotation Xrotation 
	JOINT LHipJoint
	{
		OFFSET 0 0 0
		CHANNELS 3 Zrotation Yrotation Xrotation
		JOINT LeftHip
		{
			OFFSET 1.62964 -1.40469 0.78906
			CHANNELS 3 Zrotation Yrotation Xrotation
			JOINT LeftKnee
			{
				OFFSET 2.29640 -6.30932 0.00000
				CHANNELS 3 Zrotation Yrotation Xrotation
				JOINT LeftAnkle
				{
					OFFSET 2.29451 -6.30412 0.00000
					CHANNELS 3 Zrotation Yrotation Xrotation
					JOINT LeftToe
					{
						OFFSET 0.03611 -0.09921 1.56387
						CHANNELS 3 Zrotation Yrotation Xrotation
						End Site
						{
							OFFSET 0.00000 -0.00000 0.80291
						}
					}
				}
			}
		}
	}
	JOINT RHipJoint
	{
		OFFSET 0 0 0
		CHANNELS 3 Zrotation Yrotation Xrotation
		JOINT RightHip
		{
			OFFSET -1.73712 -1.40469 0.78906
			CHANNELS 3 Zrotation Yrotation Xrotation
			JOINT RightKnee
			{
				OFFSET -2.28137 -6.26801 0.00000
				CHANNELS 3 Zrotation Yrotation Xrotation
				JOINT RightAnkle
				{
					OFFSET -2.28681 -6.28298 0.00000
					CHANNELS 3 Zrotation Yrotation Xrotation
					JOINT RightToe
					{
						OFFSET -0.15927 -0.43759 1.61103
						CHANNELS 3 Zrotation Yrotation Xrotation
						End Site
						{
							OFFSET -0.00000 -0.00000 0.84630
						}
					}
				}
			}
		}
	}
	JOINT lowerback
	{
		OFFSET 0 0 0
		CHANNELS 3 Zrotation Yrotation Xrotation
		JOINT Chest
		{
			OFFSET -0.04227 2.04338 -0.00225
			CHANNELS 3 Zrotation Yrotation Xrotation
			JOINT Chest2
			{
				OFFSET -0.02148 2.04482 -0.04273
				CHANNELS 3 Zrotation Yrotation Xrotation
				JOINT lowerneck
				{
					OFFSET 0 0 0
					CHANNELS 3 Zrotation Yrotation Xrotation
					JOINT Neck
					{
						OFFSET 0.09180 1.44629 0.19359
						CHANNELS 3 Zrotation Yrotation Xrotation
						JOINT Head
						{
							OFFSET 0.00887 1.40645 0.14750
							CHANNELS 3 Zrotation Yrotation Xrotation
							End Site
							{
								OFFSET -0.00669 1.50671 0.03707
							}
						}
					}
				}
				JOINT LeftCollar
				{
					OFFSET 0 0 0
					CHANNELS 3 Zrotation Yrotation Xrotation
					JOINT LeftShoulder
					{
						OFFSET 2.17674 1.86763 -0.06520
CHANNELS 3 Zrotation Xrotation Yrotation
						JOINT LeftElbow
						{
OFFSET 0 -4.657760 0.000000
CHANNELS 3 Zrotation Xrotation Yrotation
							JOINT LeftWrist
							{
OFFSET 0 -3.555390 0.000000
CHANNELS 3 Zrotation Xrotation Yrotation
								JOINT lhand
								{
									OFFSET 0 0 0
CHANNELS 3 Zrotation Xrotation Yrotation
									JOINT LFingers
									{
OFFSET 0 -0.707260 0.000000
CHANNELS 3 Zrotation Xrotation Yrotation
										End Site
										{
OFFSET 0 -0.570220 0.000000
										}
									}
								}
								JOINT LThumb
								{
OFFSET 0 0.000000 0.000000
CHANNELS 3 Zrotation Xrotation Yrotation
									End Site
									{
OFFSET 0 -0.578920 0.578920
									}
								}
							}
						}
					}
				}
				JOINT RightCollar
				{
					OFFSET 0 0 0
					CHANNELS 3 Zrotation Yrotation Xrotation
					JOINT RightShoulder
					{
						OFFSET -2.80694 1.55459 -0.32496
CHANNELS 3 Zrotation Xrotation Yrotation
						JOINT RightElbow
						{
OFFSET 0 -4.719250 -0.000000
CHANNELS 3 Zrotation Xrotation Yrotation
							JOINT RightWrist
							{
OFFSET 0 -3.569900 0.000000
CHANNELS 3 Zrotation Xrotation Yrotation
								JOINT rhand
								{
									OFFSET 0 0 0
CHANNELS 3 Zrotation Xrotation Yrotation
									JOINT RFingers
									{
OFFSET 0 -0.507760 0.000000
CHANNELS 3 Zrotation Xrotation Yrotation
										End Site
										{
OFFSET 0 -0.409370 0.000000
										}
									}
								}
								JOINT RThumb
								{
OFFSET 0 0.000000 0.000000
CHANNELS 3 Zrotation Xrotation Yrotation
									End Site
									{
OFFSET 0 -0.415620 0.415620
									}
								}
							}
						}
					}
				}
			}
		}
	}
}
MOTION
Frames: 10
Frame Time: 0.008333333333333333
10.155657 13.090100 10.130722 -183.902411 -20.633303 -145.908129 0.000000 0.000000 0.000000 -1.692672 -30.510938 -75.520462 17.058201 19.788870 81.369030 0.229525 -22.232659 -17.316797 1.275860 7.149374 20.162595 0.000000 0.000000 0.000000 12.390147 15.359208 -71.451499 -17.692241 -19.870117 83.238110 -6.383240 -3.366160 -49.183995 -3.862468 11.974211 -35.641985 -5.600080 1.586770 -7.429483 -2.092136 2.502390 -1.280319 1.210782 1.152739 2.687993 5.450956 2.399306 -8.655746 -2.453740 2.485035 -2.932170 -1.619545 1.069934 0.654337 0.000000 0.000000 0.000000 21.258948 3.059849 -47.805166 42.149676 -49.283322 20.056861 29.058779 -8.505721 16.289521 0.000000 0.000000 0.000000 -7.125000 0.000000 0.000000 0.852706 11.496605 0.665332 0.000000 0.000000 0.000000 -10.129880 -5.366409 45.397172 -50.508344 -53.188913 -26.583168 -21.302983 12.283489 48.069923 0.000000 0.000000 0.000000 7.125000 0.000000 0.000000 41.746801 77.158545 -32.421624
10.165054 13.223000 10.086186 -184.052629 -21.619745 -146.380962 0.000000 0.000000 0.000000 -2.263483 -30.763457 -73.766379 16.533128 19.707361 79.815176 0.100814 -21.927656 -16.190113 1.489667 7.704735 21.823788 0.000000 0.000000 0.000000 13.127376 14.335821 -70.015785 -17.242023 -19.815110 81.911900 -6.118489 -3.934662 -48.337721 -3.995482 12.153949 -36.279386 -5.721861 1.836408 -7.490712 -2.076460 2.844232 -1.354652 1.326188 1.324461 2.617132 5.582137 2.924941 -8.365344 -2.699249 3.184326 -3.314240 -1.700813 1.410207 0.520283 0.000000 0.000000 0.000000 22.085576 3.271631 -49.463041 43.785755 -50.152794 21.304211 28.869523 -7.503117 16.569694 0.000000 0.000000 0.000000 -7.125000 0.000000 0.000000 0.696716 11.215026 0.547914 0.000000 0.000000 0.000000 -11.451036 -5.881965 46.743001 -52.316267 -53.882569 -28.036229 -22.680785 12.726994 47.415154 0.000000 0.000000 0.000000 7.125000 0.000000 0.000000 38.015798 77.274982 -29.480796
10.176238 13.364786 10.039909 -184.089538 -22.566225 -146.660828 0.000000 0.000000 0.000000 -2.617775 -30.829345 -72.348088 15.990201 19.609039 78.201906 -0.026812 -21.401416 -14.859125 1.697842 8.205478 23.340253 0.000000 0.000000 0.000000 13.876261 13.451078 -68.785579 -16.752687 -19.744037 80.466022 -5.819159 -4.498164 -47.347615 -4.095237 12.286112 -36.751767 -5.849319 2.106313 -7.879765 -2.041401 3.226702 -1.530206 1.479034 1.513187 2.617940 5.672760 3.468770 -7.915425 -2.935638 3.922206 -3.762015 -1.774997 1.772165 0.341634 0.000000 0.000000 0.000000 22.892550 3.501505 -51.054507 45.365025 -50.944035 22.522417 28.931275 -6.865232 16.809747 0.000000 0.000000 0.000000 -7.125000 0.000000 0.000000 0.710602 10.937094 0.562992 0.000000 0.000000 0.000000 -12.943192 -6.384795 48.227589 -53.982418 -54.478273 -29.386552 -24.032527 12.824399 46.490420 0.000000 0.000000 0.000000 7.125000 0.000000 0.000000 33.234147 77.144796 -25.554769
10.185253 13.521380 9.986153 -183.998553 -23.498195 -146.899559 0.000000 0.000000 0.000000 -2.809845 -30.748042 -71.015284 15.410401 19.486334 76.469268 -0.181737 -20.887142 -13.215135 1.831899 8.506229 24.262874 0.000000 0.000000 0.000000 14.698966 12.625870 -67.432490 -16.103522 -19.630932 78.539311 -5.477423 -4.879550 -46.111221 -4.082132 12.268916 -36.689914 -5.917766 2.433358 -8.479431 -2.013521 3.691143 -1.747568 1.611087 1.739981 2.687556 5.727184 3.989638 -7.399314 -3.144653 4.637648 -4.223702 -1.840356 2.125670 0.147727 0.000000 0.000000 0.000000 23.754570 3.622707 -52.688230 46.746995 -51.594369 23.600464 29.447386 -6.530925 16.813086 0.000000 0.000000 0.000000 -7.125000 0.000000 0.000000 1.049083 10.845692 0.833109 0.000000 0.000000 0.000000 -14.415229 -6.687633 49.316904 -55.728745 -55.057822 -30.813013 -15.628937 6.632078 50.249268 0.000000 0.000000 0.000000 7.125000 0.000000 0.000000 54.291325 76.041875 -42.007357
10.191696 13.693402 9.932019 -183.815304 -24.641237 -147.101234 0.000000 0.000000 0.000000 -2.827446 -30.638910 -69.811194 14.827274 19.343589 74.714245 -0.334091 -20.381111 -11.432447 1.832097 8.507275 24.265882 0.000000 0.000000 0.000000 15.633294 11.696675 -65.972467 -15.301592 -19.457704 76.140542 -5.062330 -4.927500 -44.410634 -4.110092 12.305491 -36.821361 -5.809173 2.737942 -9.129011 -1.944954 4.107863 -2.004180 1.689748 1.944164 2.754223 5.707797 4.429133 -6.900371 -3.304813 5.248576 -4.676691 -1.884691 2.429339 -0.046860 0.000000 0.000000 0.000000 24.519940 3.587439 -54.201405 47.784639 -52.059646 24.416390 29.816403 -6.472728 17.082099 0.000000 0.000000 0.000000 -7.125000 0.000000 0.000000 1.258848 10.479918 1.009525 0.000000 0.000000 0.000000 -15.821924 -6.786432 50.037845 -57.438091 -55.582770 -32.219433 -21.982863 10.270311 45.937381 0.000000 0.000000 0.000000 7.125000 0.000000 0.000000 34.243632 75.770386 -25.677491
10.195628 13.880558 9.878909 -183.731815 -26.000849 -147.297881 0.000000 0.000000 0.000000 -2.981252 -30.625052 -68.460835 14.196877 19.168624 72.801648 -0.486532 -19.846682 -9.413926 1.821067 8.483016 24.191208 0.000000 0.000000 0.000000 16.467213 10.581819 -64.763864 -14.624762 -19.289112 74.101107 -4.641812 -5.117383 -42.680857 -4.190655 12.409462 -37.196906 -5.647461 3.017265 -9.643764 -1.906857 4.468158 -2.316871 1.695734 2.123247 2.697363 5.620472 4.802682 -6.334419 -3.424150 5.780578 -5.142193 -1.912129 2.696810 -0.262675 0.000000 0.000000 0.000000 25.225994 3.542319 -55.680502 48.672617 -52.443846 25.118483 29.783360 -6.685010 17.794671 0.000000 0.000000 0.000000 -7.125000 0.000000 0.000000 1.150724 9.689068 0.939235 0.000000 0.000000 0.000000 -17.223555 -6.899048 50.767254 -58.748172 -55.964234 -33.302159 -19.566462 7.813564 46.866353 0.000000 0.000000 0.000000 7.125000 0.000000 0.000000 39.483930 75.566308 -29.507627
10.197313 14.084492 9.820959 -183.724068 -27.433852 -147.519584 0.000000 0.000000 0.000000 -3.299590 -30.617623 -66.852476 13.479482 18.942276 70.602629 -0.588333 -19.030160 -7.404885 1.654516 8.091333 23.000100 0.000000 0.000000 0.000000 17.247833 9.369639 -63.460551 -13.909513 -19.079880 71.922540 -4.185925 -5.451505 -40.773805 -4.224532 12.453232 -37.354936 -5.543022 3.283896 -10.067911 -1.904268 4.803009 -2.676554 1.688974 2.290648 2.541067 5.470737 5.152855 -5.663297 -3.513544 6.290716 -5.643453 -1.928049 2.956635 -0.511183 0.000000 0.000000 0.000000 25.901461 3.564710 -57.096382 49.504194 -52.791629 25.779267 29.933655 -7.004693 18.106062 0.000000 0.000000 0.000000 -7.125000 0.000000 0.000000 1.209762 9.312204 0.997852 0.000000 0.000000 0.000000 -18.418699 -6.748318 51.216305 -59.788783 -56.251566 -34.165781 -14.562045 3.503374 48.614736 0.000000 0.000000 0.000000 7.125000 0.000000 0.000000 49.687801 74.836111 -36.924821
10.195673 14.305148 9.756140 -183.689257 -28.862808 -147.752285 0.000000 0.000000 0.000000 -3.653117 -30.524501 -65.077692 12.668604 18.652694 68.086211 -0.625972 -17.849246 -5.446132 1.329336 7.281547 20.560866 0.000000 0.000000 0.000000 18.074751 8.137568 -61.957898 -13.083973 -18.806067 69.380214 -3.673080 -5.969658 -38.586824 -4.243542 12.477094 -37.442146 -5.498707 3.523902 -10.626847 -1.888686 5.116127 -3.002987 1.739672 2.442219 2.488177 5.302663 5.484371 -4.991024 -3.582657 6.775913 -6.127136 -1.939411 3.205471 -0.757223 0.000000 0.000000 0.000000 26.464485 3.584404 -58.300555 50.247091 -53.093939 26.371824 30.325449 -7.458023 18.103169 0.000000 0.000000 0.000000 -7.125000 0.000000 0.000000 1.462834 9.241796 1.209460 0.000000 0.000000 0.000000 -19.385712 -6.420476 51.324205 -60.544433 -56.453091 -34.794525 -12.756189 1.497542 48.070699 0.000000 0.000000 0.000000 7.125000 0.000000 0.000000 49.667279 73.813197 -36.010469
10.188582 14.541266 9.687045 -183.504798 -30.308240 -147.969683 0.000000 0.000000 0.000000 -3.853179 -30.293623 -63.334439 11.789102 18.296551 65.314617 -0.628986 -16.439480 -3.317981 1.025281 6.441343 18.070429 0.000000 0.000000 0.000000 19.043461 6.908151 -60.422397 -12.202682 -18.470928 66.625304 -3.101762 -6.779191 -36.116169 -4.412544 12.687096 -38.212858 -5.407510 3.716550 -11.590171 -1.795226 5.397187 -3.175798 1.880704 2.565849 2.815808 5.178903 5.759337 -4.521808 -3.630944 7.171036 -6.483479 -1.949125 3.407837 -0.933260 0.000000 0.000000 0.000000 26.779229 3.416668 -59.128986 50.782358 -53.306104 26.800207 30.531432 -8.152343 18.553659 0.000000 0.000000 0.000000 -7.125000 0.000000 0.000000 1.537345 8.697055 1.287690 0.000000 0.000000 0.000000 -20.266433 -6.315829 51.270690 -60.839353 -56.529480 -35.040365 -14.109473 2.006651 46.124233 0.000000 0.000000 0.000000 7.125000 0.000000 0.000000 43.042104 73.140816 -30.142259
10.174392 14.795356 9.615509 -183.125833 -31.837539 -148.300234 0.000000 0.000000 0.000000 -3.918789 -29.899967 -61.524255 10.864561 17.865415 62.337572 -0.626231 -15.049831 -0.671320 1.025114 6.440842 18.068926 0.000000 0.000000 0.000000 20.203645 5.625263 -58.705702 -11.188492 -18.022932 63.388492 -2.454934 -7.875602 -33.190460 -4.905031 13.273908 -40.406347 -5.100582 3.944179 -12.845179 -1.668265 5.732162 -3.145080 1.985128 2.705748 3.528162 5.095598 5.920188 -4.385915 -3.614667 7.395911 -6.649089 -1.934434 3.522194 -1.002208 0.000000 0.000000 0.000000 26.922468 2.906734 -59.770973 51.068836 -53.417539 27.030090 30.800129 -8.555348 18.483125 0.000000 0.000000 0.000000 -7.125000 0.000000 0.000000 1.719315 8.723849 1.439360 0.000000 0.000000 0.000000 -20.974613 -6.407315 50.875865 -60.685430 -56.489831 -34.911984 -12.541693 0.368504 44.780660 0.000000 0.000000 0.000000 7.125000 0.000000 0.000000 41.348281 71.674288 -27.618219
